<svg width="58" height="50" viewBox="0 0 58 50" fill="none" xmlns="http://www.w3.org/2000/svg">
<rect width="58" height="50" rx="13" fill="#D8DDF5" fill-opacity="0.55"/>
<path d="M32.9297 24.5117C32.9297 25.4727 32.9414 26.3398 32.9648 27.1133C32.9883 27.8633 33.0117 28.4844 33.0352 28.9766C33.082 29.4453 33.1289 29.7383 33.1758 29.8555L36.0938 30.3828L35.9883 32H25.793L25.6875 30.3828L28.6055 29.8555C28.6289 29.7148 28.6523 29.3867 28.6758 28.8711C28.6992 28.3555 28.7227 27.7227 28.7461 26.9727C28.7695 26.1992 28.7812 25.3789 28.7812 24.5117V19.6953C28.7812 18.8516 28.7578 18.0195 28.7109 17.1992C28.6875 16.3789 28.6523 15.7578 28.6055 15.3359L25.3711 16.0039L25.2656 14.0703L33.1758 10.9414C33.1055 11.8555 33.0469 12.9805 33 14.3164C32.9531 15.6523 32.9297 17.1992 32.9297 18.957V24.5117Z" fill="#292662"/>
</svg>
