<svg width="28" height="28" viewBox="0 0 28 28" fill="none" xmlns="http://www.w3.org/2000/svg">
<path d="M5.17188 19.2344C8.24479 17.9844 11.1875 17.3594 14 17.3594C16.8125 17.3594 19.7292 17.9844 22.75 19.2344C25.8229 20.4323 27.3594 22.0208 27.3594 24V27.3594H0.640625V24C0.640625 22.0208 2.15104 20.4323 5.17188 19.2344ZM18.6875 12.0469C17.3854 13.349 15.8229 14 14 14C12.1771 14 10.6146 13.349 9.3125 12.0469C8.01042 10.7448 7.35938 9.18229 7.35938 7.35938C7.35938 5.53646 8.01042 3.97396 9.3125 2.67188C10.6146 1.31771 12.1771 0.640625 14 0.640625C15.8229 0.640625 17.3854 1.31771 18.6875 2.67188C19.9896 3.97396 20.6406 5.53646 20.6406 7.35938C20.6406 9.18229 19.9896 10.7448 18.6875 12.0469Z" fill="#666666"/>
</svg>
