<svg width="58" height="50" viewBox="0 0 58 50" fill="none" xmlns="http://www.w3.org/2000/svg">
<rect width="58" height="50" rx="13" fill="#D8DDF5" fill-opacity="0.55"/>
<path d="M32.543 21.2422L33.0703 20.6094C35.1562 20.6562 36.7734 21.1484 37.9219 22.0859C39.0938 23 39.6797 24.2422 39.6797 25.8125C39.6797 26.9141 39.3164 27.9688 38.5898 28.9766C37.8633 29.9609 36.8438 30.7695 35.5312 31.4023C34.2422 32.0117 32.7305 32.3164 30.9961 32.3164C29.9648 32.3164 29.0391 32.1875 28.2188 31.9297C27.4219 31.6719 26.7891 31.3203 26.3203 30.875C25.875 30.4062 25.6523 29.8906 25.6523 29.3281C25.6523 28.8359 25.8047 28.4375 26.1094 28.1328C26.4375 27.8047 26.8359 27.6406 27.3047 27.6406C27.7266 27.6406 28.0898 27.7109 28.3945 27.8516C28.6992 27.9922 29.0742 28.2617 29.5195 28.6602L31.9102 30.7344L30.6094 30.1719C31.5 30.3594 32.3086 30.3242 33.0352 30.0664C33.7617 29.7852 34.3359 29.3164 34.7578 28.6602C35.1797 28.0039 35.3906 27.2305 35.3906 26.3398C35.3906 25.168 35.0039 24.2422 34.2305 23.5625C33.4805 22.8828 32.4492 22.543 31.1367 22.543C30.8086 22.543 30.4922 22.5547 30.1875 22.5781C29.9062 22.6016 29.6367 22.6367 29.3789 22.6836L29.1328 20.75C30.6797 20.5625 31.8867 20.1289 32.7539 19.4492C33.6445 18.7461 34.0898 17.8789 34.0898 16.8477C34.0898 16.0273 33.8086 15.3828 33.2461 14.9141C32.707 14.4219 31.957 14.1758 30.9961 14.1758C30.1992 14.1758 29.4492 14.3516 28.7461 14.7031C28.0664 15.0547 27.5039 15.5586 27.0586 16.2148L25.7227 15.2656C26.332 13.9766 27.2461 12.957 28.4648 12.207C29.6836 11.4336 31.0664 11.0469 32.6133 11.0469C34.3711 11.0469 35.7656 11.4922 36.7969 12.3828C37.8281 13.2734 38.3438 14.375 38.3438 15.6875C38.3438 17.0703 37.8047 18.2305 36.7266 19.168C35.6484 20.082 34.2539 20.7734 32.543 21.2422Z" fill="#292662"/>
</svg>
