<svg width="58" height="50" viewBox="0 0 58 50" fill="none" xmlns="http://www.w3.org/2000/svg">
<rect width="58" height="50" rx="13" fill="#D8DDF5" fill-opacity="0.55"/>
<path d="M25.7227 32.1055L25.6172 30.418C27.7031 28.6836 29.3789 27.125 30.6445 25.7422C31.9336 24.3359 32.8594 23.0234 33.4219 21.8047C34.0078 20.5859 34.3008 19.3789 34.3008 18.1836C34.3008 17.0117 33.9609 16.0742 33.2812 15.3711C32.625 14.6445 31.7227 14.2812 30.5742 14.2812C28.7461 14.2812 27.293 15.1719 26.2148 16.9531L24.8438 15.9688C25.5 14.3984 26.4492 13.1914 27.6914 12.3477C28.957 11.4805 30.4102 11.0469 32.0508 11.0469C33.3398 11.0469 34.4883 11.3164 35.4961 11.8555C36.5039 12.3711 37.2891 13.1094 37.8516 14.0703C38.4375 15.0078 38.7305 16.1094 38.7305 17.375C38.7305 19.2734 37.9336 21.2305 36.3398 23.2461C34.7695 25.2383 32.5078 27.1836 29.5547 29.082V28.625H36.0586C36.457 28.625 36.7734 28.6133 37.0078 28.5898C37.2656 28.5664 37.5352 28.5312 37.8164 28.4844L38.9414 25.8477L40.875 26.0586L39.8203 32.1758C39.4219 32.1289 38.9414 32.0938 38.3789 32.0703C37.8398 32.0469 37.3008 32.0234 36.7617 32C36.2461 32 35.7891 32 35.3906 32H28.3945C27.9727 32 27.5273 32 27.0586 32C26.6133 32.0234 26.168 32.0586 25.7227 32.1055Z" fill="#292662"/>
</svg>
