<svg width="32" height="38" viewBox="0 0 32 38" fill="none" xmlns="http://www.w3.org/2000/svg">
<path d="M11.9195 16.6808C13.0649 17.5728 14.4251 18.0188 16 18.0188C17.5749 18.0188 18.8993 17.5728 19.9732 16.6808C21.1186 15.7293 21.6913 14.5994 21.6913 13.2911C21.6913 11.9828 21.1186 10.8826 19.9732 9.99061C18.8993 9.03912 17.5749 8.56338 16 8.56338C14.4251 8.56338 13.0649 9.03912 11.9195 9.99061C10.8456 10.8826 10.3087 11.9828 10.3087 13.2911C10.3087 14.5994 10.8456 15.7293 11.9195 16.6808ZM4.61745 3.92488C7.76734 1.30829 11.5615 0 16 0C20.4385 0 24.1969 1.30829 27.2752 3.92488C30.4251 6.482 32 9.60407 32 13.2911C32 15.1346 31.4273 17.2457 30.2819 19.6244C29.2081 22.0031 27.8837 24.2332 26.3087 26.3146C24.7338 28.3959 23.1588 30.3584 21.5839 32.2019C20.0805 33.9859 18.7919 35.4131 17.7181 36.4836L16 38C15.5705 37.5837 14.9978 37.0485 14.2819 36.3944C13.566 35.6808 12.2774 34.313 10.4161 32.2911C8.55481 30.2097 6.90828 28.2175 5.47651 26.3146C4.11633 24.3521 2.86353 22.1518 1.71812 19.7136C0.572707 17.2754 0 15.1346 0 13.2911C0 9.60407 1.53915 6.482 4.61745 3.92488Z" fill="#666666"/>
</svg>
